# Blender 4.3.0
# www.blender.org
mtllib thunder.mtl
o Cube.001
v 1.095000 -0.385000 -0.400000
v -1.505000 0.315000 0.400000
v 0.495000 1.215000 -0.400000
v 1.395000 -2.185000 0.400000
v 1.095000 -0.385000 0.400000
v -1.505000 0.315000 -0.400000
v 0.495000 1.215000 0.400000
v 1.395000 -2.185000 -0.400000
v -0.305000 -0.385000 -0.400000
v 0.395000 0.315000 0.400000
v -1.305000 1.215000 -0.400000
v -0.305000 -0.385000 0.400000
v -1.305000 1.215000 0.400000
v 0.395000 0.315000 0.400000
v 0.595000 -0.385000 0.400000
v -0.705000 0.315000 0.400000
v -0.305000 -0.385000 -0.400000
v -0.705000 0.315000 -0.400000
v -0.005000 0.315000 -0.400000
v 0.595000 -0.385000 -0.400000
vn 0.9363 0.3511 -0.0000
vn -0.0000 -0.0000 1.0000
vn -0.8321 -0.5547 -0.0000
vn -0.0000 1.0000 -0.0000
vn -0.0000 -0.0000 -1.0000
vn -0.0000 -1.0000 -0.0000
vn -0.6529 -0.7574 -0.0000
vn 0.9138 0.4061 -0.0000
vt 0.375000 0.000000
vt 0.625000 0.250000
vt 0.375000 0.250000
vt 0.475940 0.500000
vt 0.477528 0.328302
vt 0.625000 0.500000
vt 0.475940 0.750000
vt 0.375000 0.750000
vt 0.477053 0.865359
vt 0.625000 0.750000
vt 0.375000 1.000000
vt 0.125000 0.750000
vt 0.201952 0.749382
vt 0.875000 0.500000
vt 0.725736 0.500000
vt 0.875000 0.500527
vt 0.725736 0.750000
vt 0.556678 0.800822
vt 0.555946 0.249382
vt 0.375000 0.500000
vt 0.556678 0.380856
vt 0.625000 0.399264
vt 0.625000 0.000000
vt 0.375000 0.326952
vt 0.625000 1.000000
vt 0.125000 0.500000
vt 0.201952 0.500000
vt 0.875000 0.750000
vt 0.555946 0.930946
vt 0.625000 0.850736
vt 0.555945 0.000000
vt 0.625000 0.249473
s 0
usemtl Material
f 1/1/1 7/2/1 5/3/1
f 7/2/2 16/4/2 14/5/2
f 13/6/3 18/7/3 16/4/3
f 18/7/4 9/8/4 17/8/4
f 9/8/5 18/7/5 19/9/5
f 11/10/5 1/11/5 19/9/5
f 9/8/6 1/12/6 20/13/6
f 7/14/4 11/10/4 13/6/4
f 16/15/4 10/14/4 14/16/4
f 2/6/4 18/17/4 6/10/4
f 8/8/5 6/10/5 17/18/5
f 10/2/5 4/3/5 15/19/5
f 2/6/7 8/8/7 4/20/7
f 12/21/2 2/6/2 4/3/2
f 12/21/2 10/2/2 16/22/2
f 1/1/1 3/23/1 7/2/1
f 15/24/2 5/3/2 7/2/2
f 7/2/2 13/6/2 16/4/2
f 14/5/2 15/24/2 7/2/2
f 13/6/3 11/10/3 18/7/3
f 19/9/5 18/7/5 11/10/5
f 11/10/5 3/25/5 1/11/5
f 1/11/5 9/8/5 19/9/5
f 1/12/6 5/26/6 15/27/6
f 1/12/6 15/27/6 20/13/6
f 20/13/4 17/8/4 9/8/4
f 7/14/4 3/28/4 11/10/4
f 2/6/4 16/15/4 18/17/4
f 17/18/5 20/29/5 8/8/5
f 6/10/5 18/30/5 17/18/5
f 4/3/8 8/1/8 20/31/8
f 4/3/8 20/31/8 15/19/8
f 15/19/4 14/32/4 10/2/4
f 2/6/7 6/10/7 8/8/7
f 4/3/2 10/2/2 12/21/2
f 12/21/2 16/22/2 2/6/2
