# Blender 4.3.0
# www.blender.org
mtllib amethyst.mtl
o amethyst
v 0.000000 0.062356 0.582847
v -0.324594 0.171601 0.187405
v 0.000000 0.247721 0.277467
v -0.201550 0.247735 0.116364
v 0.000000 0.171601 -0.374809
v 0.504761 0.062356 -0.291424
v 0.240294 0.247721 -0.138734
v 0.215194 0.062362 0.454171
v -0.504761 0.062356 -0.291424
v -0.500920 0.062362 -0.040722
v -0.240294 0.247721 -0.138734
v -0.215194 0.062362 0.454171
v 0.324594 0.171601 0.187405
v 0.201550 0.247735 0.116364
v 0.500920 0.062362 -0.040722
v 0.285727 0.062362 -0.413449
v 0.000000 0.247735 -0.232729
v -0.285727 0.062362 -0.413449
v 0.000000 -0.062356 0.582847
v -0.215194 -0.062362 0.454171
v -0.324594 -0.171601 0.187405
v 0.000000 -0.247721 0.277467
v -0.201550 -0.247735 0.116364
v -0.500920 -0.062362 -0.040722
v 0.504761 -0.062356 -0.291424
v 0.240294 -0.247721 -0.138734
v 0.324594 -0.171601 0.187405
v 0.201550 -0.247735 0.116364
v 0.215194 -0.062362 0.454171
v -0.504761 -0.062356 -0.291424
v -0.240294 -0.247721 -0.138734
v 0.500920 -0.062362 -0.040722
v 0.285727 -0.062362 -0.413449
v 0.000000 -0.171601 -0.374809
v 0.000000 -0.247735 -0.232729
v -0.285727 -0.062362 -0.413449
vn 0.2262 0.8360 -0.4999
vn 0.2470 0.8290 -0.5018
vn 0.2616 0.8196 -0.5097
vn -0.0000 0.3335 -0.9428
vn 0.5460 -0.8360 0.0540
vn 0.5580 -0.8290 0.0370
vn 0.5722 -0.8196 0.0283
vn 0.2470 -0.8290 -0.5018
vn 0.1817 -0.8668 -0.4645
vn 0.2262 -0.8360 -0.4999
vn 0.8165 -0.3335 0.4714
vn -0.2262 -0.8360 -0.4999
vn -0.1817 -0.8668 -0.4645
vn -0.2470 -0.8290 -0.5018
vn 0.3106 -0.8196 0.4814
vn 0.2963 -0.8165 0.4956
vn 0.3110 -0.8290 0.4648
vn -0.2470 0.8290 -0.5018
vn -0.1817 0.8668 -0.4645
vn -0.2262 0.8360 -0.4999
vn -0.5460 0.8360 0.0540
vn -0.5580 0.8290 0.0370
vn -0.5722 0.8196 0.0283
vn -0.5722 -0.8196 0.0283
vn -0.5773 -0.8165 0.0088
vn -0.5580 -0.8290 0.0370
vn -0.0000 -0.3335 -0.9428
vn -0.8165 -0.3335 0.4714
vn -0.0000 -0.0000 -1.0000
vn -0.8165 0.3335 0.4714
vn 0.8165 0.3335 0.4714
vn -0.0000 -1.0000 -0.0000
vn -0.5132 -0.0000 0.8583
vn -0.0000 1.0000 -0.0000
vn 0.0001 1.0000 -0.0000
vn 0.5132 -0.0000 0.8583
vn -0.9999 -0.0000 0.0153
vn -0.8660 -0.0000 0.5000
vn 0.9999 -0.0000 0.0153
vn -0.4867 -0.0000 -0.8736
vn 0.8660 -0.0000 0.5000
vn -0.4444 -0.8583 0.2566
vn -0.3110 -0.8290 0.4648
vn -0.3106 -0.8196 0.4814
vn 0.5722 0.8196 0.0283
vn 0.5773 0.8165 0.0088
vn 0.5580 0.8290 0.0370
vn 0.4867 -0.0000 -0.8736
vn -0.3110 0.8290 0.4648
vn -0.3114 0.8668 0.3896
vn -0.3198 0.8360 0.4459
vn 0.3198 0.8360 0.4459
vn 0.3114 0.8668 0.3896
vn 0.3110 0.8290 0.4648
vn 0.1817 0.8668 -0.4645
vn 0.2810 0.8165 -0.5044
vn 0.4931 -0.8668 0.0748
vn 0.5773 -0.8165 0.0088
vn 0.2616 -0.8196 -0.5097
vn 0.2810 -0.8165 -0.5044
vn -0.2810 -0.8165 -0.5044
vn -0.2616 -0.8196 -0.5097
vn 0.3114 -0.8668 0.3896
vn 0.3198 -0.8360 0.4459
vn -0.2616 0.8196 -0.5097
vn -0.2810 0.8165 -0.5044
vn -0.4931 0.8668 0.0748
vn -0.5773 0.8165 0.0088
vn -0.4090 -0.8814 0.2362
vn -0.0000 -1.0000 0.0001
vn -0.0001 -1.0000 -0.0000
vn 0.0001 -1.0000 -0.0000
vn -0.0001 1.0000 -0.0000
vn -0.0000 1.0000 0.0001
vn -0.2963 -0.8165 0.4956
vn 0.4931 0.8668 0.0748
vn 0.5460 0.8360 0.0540
vn -0.3106 0.8196 0.4814
vn -0.2963 0.8165 0.4956
vn 0.2963 0.8165 0.4956
vn 0.3106 0.8196 0.4815
vt 0.764137 0.532635
vt 0.664147 0.641758
vt 0.632100 0.503539
vt 0.896175 0.503539
vt 0.908635 0.299495
vt 0.864127 0.158340
vt 0.999851 0.199696
vt 0.764137 0.118553
vt 0.764137 0.049218
vt 0.867814 0.428391
vt 0.664147 0.158340
vt 0.764137 0.483269
vt 0.764137 0.331527
vt 0.864127 0.641757
vt 0.764137 0.601970
vt 0.908635 0.782913
vt 0.999851 0.683113
vt 0.528423 0.199695
vt 0.532736 0.082469
vt 0.632100 0.020122
vt 0.896175 0.020122
vt 0.619640 0.299495
vt 0.660460 0.428391
vt 0.000149 0.306617
vt 0.172039 0.102341
vt 0.051252 0.310212
vt 0.867814 0.911808
vt 0.619640 0.782913
vt 0.660460 0.911808
vt 0.528423 0.683113
vt 0.848589 0.264827
vt 0.679685 0.264827
vt 0.470349 0.415137
vt 0.404583 0.515658
vt 0.382027 0.469682
vt 0.679685 0.748245
vt 0.528126 0.304772
vt 0.518304 0.443280
vt 0.007108 0.438607
vt 0.143781 0.469318
vt 0.120625 0.521111
vt 0.262432 0.052596
vt 0.384977 0.059336
vt 0.356166 0.101588
vt 0.532736 0.565887
vt 0.139437 0.056158
vt 0.764137 0.814945
vt 0.848589 0.748245
vt 0.995539 0.082469
vt 0.995539 0.565887
vt 0.475743 0.310210
vt 0.055189 0.417019
vt 0.267886 0.000149
vt 0.764137 0.966686
s 1
usemtl Material.003
f 5/1/1 7/2/2 16/3/3
f 5/1/4 16/3/4 18/4/4
f 27/5/5 26/6/6 32/7/7
f 26/6/8 35/8/9 34/9/10
f 32/7/11 29/10/11 27/5/11
f 34/9/12 35/8/13 31/11/14
f 29/10/15 19/12/16 22/13/17
f 11/14/18 17/15/19 5/1/20
f 2/16/21 11/14/22 10/17/23
f 24/18/24 30/19/25 31/11/26
f 34/9/27 36/20/27 33/21/27
f 21/22/28 20/23/28 24/18/28
f 18/24/29 33/25/29 36/26/29
f 10/17/30 12/27/30 2/16/30
f 13/28/31 8/29/31 15/30/31
f 35/8/32 28/31/32 23/32/32
f 19/33/33 12/34/33 20/35/33
f 14/36/34 7/2/35 17/15/34
f 19/33/36 8/37/36 1/38/36
f 9/39/37 24/40/37 10/41/37
f 20/35/38 10/41/38 24/40/38
f 25/42/39 15/43/39 32/44/39
f 36/26/40 9/39/40 18/24/40
f 8/37/41 32/44/41 15/43/41
f 21/22/42 22/13/43 20/23/44
f 15/30/45 6/45/46 7/2/47
f 16/46/48 25/42/48 33/25/48
f 3/47/49 4/48/50 2/16/51
f 13/28/52 14/36/53 3/47/54
f 17/15/55 7/2/2 5/1/1
f 7/2/2 6/45/56 16/3/3
f 28/31/57 26/6/6 27/5/5
f 26/6/6 25/49/58 32/7/7
f 34/9/10 33/21/59 26/6/8
f 33/21/59 25/49/60 26/6/8
f 30/19/61 36/20/62 31/11/14
f 36/20/62 34/9/12 31/11/14
f 28/31/63 27/5/64 22/13/17
f 27/5/64 29/10/15 22/13/17
f 5/1/20 18/4/65 11/14/18
f 18/4/65 9/50/66 11/14/18
f 4/48/67 11/14/22 2/16/21
f 11/14/22 9/50/68 10/17/23
f 23/32/69 21/22/42 31/11/26
f 21/22/42 24/18/24 31/11/26
f 18/24/29 16/46/29 33/25/29
f 22/13/70 23/32/32 28/31/32
f 23/32/32 31/11/71 35/8/32
f 35/8/32 26/6/72 28/31/32
f 19/33/33 1/38/33 12/34/33
f 11/14/73 4/48/34 17/15/34
f 4/48/34 3/47/74 14/36/34
f 17/15/34 4/48/34 14/36/34
f 19/33/36 29/51/36 8/37/36
f 9/39/37 30/52/37 24/40/37
f 20/35/38 12/34/38 10/41/38
f 25/42/39 6/53/39 15/43/39
f 36/26/40 30/52/40 9/39/40
f 8/37/41 29/51/41 32/44/41
f 23/32/69 22/13/43 21/22/42
f 22/13/43 19/12/75 20/23/44
f 14/36/76 13/28/77 7/2/47
f 13/28/77 15/30/45 7/2/47
f 16/46/48 6/53/48 25/42/48
f 2/16/51 12/27/78 3/47/49
f 12/27/78 1/54/79 3/47/49
f 1/54/80 8/29/81 3/47/54
f 8/29/81 13/28/52 3/47/54
