# Blender 4.3.0
# www.blender.org
mtllib diamond.mtl
o diamond.001
v 0.000001 0.034313 -0.288227
v 0.185269 0.034313 -0.220795
v 0.283849 0.034313 -0.050050
v 0.249612 0.034313 0.144114
v 0.098580 0.034313 0.270846
v -0.098580 0.034313 0.270846
v -0.249612 0.034313 0.144114
v -0.283849 0.034313 -0.050050
v -0.185269 0.034313 -0.220796
v -0.000239 0.157199 -0.157569
v 0.004725 0.158833 0.165586
v 0.204576 0.117180 0.118112
v 0.151868 0.117170 -0.180941
v -0.151884 0.117164 -0.180930
v 0.154327 0.157395 -0.031155
v 0.000000 0.102939 0.239638
v -0.204576 0.117180 0.118112
v -0.153915 0.158180 -0.027135
v 0.000000 -0.137251 0.000000
vn -0.0000 -0.1293 -0.9916
vn 0.4312 0.7409 -0.5149
vn 0.6291 -0.2053 -0.7498
vn 0.9766 -0.1294 -0.1719
vn -0.6290 -0.2053 -0.7498
vn -0.4315 0.7414 -0.5140
vn -0.9766 -0.1291 -0.1722
vn -0.5660 0.7526 0.3365
vn -0.3768 0.9244 -0.0595
vn -0.8476 -0.2053 0.4893
vn -0.0002 0.9221 -0.3870
vn 0.5685 0.7518 0.3341
vn 0.8476 -0.2053 0.4893
vn 0.3594 -0.1413 0.9224
vn -0.3593 -0.1372 0.9231
vn 0.0073 0.9198 0.3923
vn -0.0135 0.6963 0.7176
vn 0.3795 0.9229 -0.0657
vn -0.0000 -1.0000 -0.0000
vt 0.094608 0.369863
vt 0.128818 0.509728
vt 0.055954 0.519442
vt 0.122476 0.658873
vt 0.220385 0.280140
vt 0.237446 0.351627
vt 0.374391 0.292251
vt 0.417107 0.429740
vt 0.321327 0.408176
vt 0.484594 0.400521
vt 0.198855 0.441555
vt 0.266143 0.649444
vt 0.263062 0.722923
vt 0.411925 0.681620
vt 0.499417 0.554293
vt 0.356612 0.559549
vt 0.420346 0.593683
vt 0.208801 0.566497
vt 0.556356 0.634185
vt 0.499587 0.498585
vt 0.714243 0.488401
vt 0.543262 0.358226
vt 0.666942 0.278773
vt 0.812754 0.297413
vt 0.912476 0.405414
vt 0.919438 0.552246
vt 0.830395 0.669205
vt 0.686998 0.701563
s 1
usemtl Material.001
f 1/1/1 13/2/2 2/3/3
f 2/3/3 13/2/2 3/4/4
f 9/5/5 14/6/6 1/1/1
f 9/5/5 8/7/7 14/6/6
f 17/8/8 18/9/9 8/7/7
f 17/8/8 8/7/7 7/10/10
f 14/6/6 18/9/9 10/11/11
f 3/4/4 12/12/12 4/13/13
f 12/12/12 5/14/14 4/13/13
f 6/15/15 11/16/16 17/8/8
f 11/16/16 6/15/15 16/17/17
f 6/15/15 5/14/14 16/17/17
f 6/15/15 17/8/8 7/10/10
f 14/6/6 8/7/7 18/9/9
f 14/6/6 10/11/11 1/1/1
f 13/2/2 1/1/1 10/11/11
f 13/2/2 15/18/18 3/4/4
f 3/4/4 15/18/18 12/12/12
f 5/14/14 12/12/12 11/16/16
f 16/17/17 5/14/14 11/16/16
f 8/19/7 9/20/5 19/21/19
f 1/22/1 2/23/3 19/21/19
f 9/20/5 1/22/1 19/21/19
f 2/23/3 3/24/4 19/21/19
f 3/24/4 4/25/13 19/21/19
f 4/25/13 5/26/14 19/21/19
f 5/26/14 6/27/15 19/21/19
f 6/27/15 7/28/10 19/21/19
f 7/28/10 8/19/7 19/21/19
f 13/2/2 10/11/11 15/18/18
f 17/8/8 11/16/16 18/9/9
f 12/12/12 15/18/18 11/16/16
f 11/16/16 15/18/18 10/11/11
f 10/11/11 18/9/9 11/16/16
