# Blender 4.3.0
# www.blender.org
mtllib sapphire.mtl
o sapphire_low
v -0.012816 0.116001 -0.066352
v -0.012816 0.027024 -0.066352
v 0.068397 0.027024 -0.000484
v -0.350390 0.116001 -0.066352
v -0.080391 0.177328 0.078728
v -0.080391 0.177329 0.288568
v -0.282815 0.177329 0.288568
v -0.431603 0.116002 0.367780
v -0.350390 0.116002 0.433648
v -0.282815 0.177328 0.078728
v -0.080391 -0.034303 0.078728
v -0.282815 -0.034303 0.078728
v -0.282815 -0.034302 0.288568
v -0.080391 -0.034302 0.288568
v -0.431603 0.116001 -0.000484
v -0.431603 0.027025 0.367780
v 0.068397 0.116001 -0.000484
v -0.012816 0.116002 0.433648
v 0.068397 0.027025 0.367780
v -0.012816 0.027025 0.433648
v -0.431603 0.027024 -0.000484
v -0.350390 0.027025 0.433648
v -0.350390 0.027024 -0.066352
v 0.068397 0.116002 0.367780
vn 0.0760 -0.9306 -0.3580
vn -0.1233 -0.9776 -0.1708
vn -0.0639 -0.9295 -0.3632
vn -0.3410 -0.9363 -0.0843
vn -0.1810 -0.9767 0.1151
vn -0.3484 -0.9348 0.0692
vn 0.3410 0.9363 0.0843
vn 0.1612 0.9759 -0.1472
vn 0.1414 0.9805 0.1365
vn 0.3484 0.9348 -0.0692
vn 0.0639 0.9295 -0.3632
vn -0.3410 0.9363 0.0843
vn -0.0639 0.9295 0.3632
vn -0.1233 0.9776 0.1708
vn 0.1612 -0.9759 0.1472
vn -0.0760 -0.9306 0.3580
vn -0.3484 0.9348 -0.0692
vn -0.1810 0.9767 -0.1151
vn -0.0760 0.9306 -0.3580
vn 0.3410 -0.9363 -0.0843
vn 0.1414 -0.9805 -0.1365
vn 0.3484 -0.9348 0.0692
vn 0.0639 -0.9295 0.3632
vn 0.0760 0.9306 0.3580
vn -0.0000 -0.0000 -1.0000
vn 0.6299 -0.0000 0.7767
vn 0.6299 -0.0000 -0.7767
vn -1.0000 -0.0000 -0.0000
vn -0.6299 -0.0000 -0.7767
vn -0.6299 -0.0000 0.7767
vn -0.0000 -0.0000 1.0000
vn 1.0000 -0.0000 -0.0000
vt 0.950523 0.430320
vt 0.837077 0.643533
vt 0.950523 0.696896
vt 0.899018 0.761028
vt 0.672991 0.643534
vt 0.611051 0.761029
vt 0.603810 0.366980
vt 0.835257 0.486115
vt 0.667236 0.486115
vt 0.898683 0.366980
vt 0.951424 0.432008
vt 0.603810 0.767335
vt 0.551069 0.702307
vt 0.667236 0.648199
vt 0.672991 0.483683
vt 0.559545 0.696896
vt 0.898683 0.767335
vt 0.835257 0.648199
vt 0.951424 0.702307
vt 0.899017 0.366188
vt 0.837077 0.483683
vt 0.611051 0.366188
vt 0.559545 0.430321
vt 0.551069 0.432008
vt 0.581215 0.125020
vt 0.316407 0.072806
vt 0.578589 0.072806
vt 0.155575 0.213997
vt 0.051008 0.125020
vt 0.155575 0.125020
vt 0.683155 0.072806
vt 0.483624 0.213997
vt 0.851888 0.125020
vt 0.851888 0.213997
vt 0.417756 0.125020
vt 0.483624 0.125020
vt 0.917756 0.125020
vt 0.417756 0.213997
vt 0.417756 0.125020
vt 0.917756 0.125019
vt 0.685781 0.125020
vt 0.319033 0.125019
vt 0.051008 0.213997
vt 0.417756 0.213997
vt 0.917756 0.213997
vt 0.915130 0.072806
s 1
usemtl Material.009
f 2/1/1 12/2/2 23/3/3
f 21/4/4 13/5/5 16/6/6
f 24/7/7 5/8/8 6/9/9
f 17/10/10 1/11/11 5/8/8
f 8/12/12 9/13/13 7/14/14
f 14/15/15 22/16/16 13/5/5
f 15/17/17 10/18/18 4/19/19
f 3/20/20 14/15/15 11/21/21
f 22/16/16 16/6/6 13/5/5
f 12/2/2 21/4/4 23/3/3
f 14/15/15 19/22/22 20/23/23
f 2/1/1 3/20/20 11/21/21
f 18/24/24 7/14/14 9/13/13
f 10/18/18 8/12/12 7/14/14
f 24/7/7 6/9/9 18/24/24
f 12/2/2 14/15/15 13/5/5
f 5/8/8 4/19/19 10/18/18
f 7/14/14 5/8/8 10/18/18
f 2/1/1 11/21/21 12/2/2
f 21/4/4 12/2/2 13/5/5
f 24/7/7 17/10/10 5/8/8
f 14/15/15 20/23/23 22/16/16
f 3/20/20 19/22/22 14/15/15
f 18/24/24 6/9/9 7/14/14
f 10/18/18 15/17/17 8/12/12
f 12/2/2 11/21/21 14/15/15
f 5/8/8 1/11/11 4/19/19
f 7/14/14 6/9/9 5/8/8
f 2/25/25 4/26/25 1/27/25
f 20/28/26 24/29/26 18/30/26
f 17/31/27 2/25/27 1/27/27
f 15/32/28 16/33/28 8/34/28
f 15/32/29 23/35/29 21/36/29
f 22/37/30 8/34/30 16/33/30
f 22/38/31 18/30/31 9/39/31
f 17/31/32 19/40/32 3/41/32
f 2/25/25 23/42/25 4/26/25
f 20/28/26 19/43/26 24/29/26
f 17/31/27 3/41/27 2/25/27
f 15/32/28 21/36/28 16/33/28
f 15/32/29 4/44/29 23/35/29
f 22/37/30 9/45/30 8/34/30
f 22/38/31 20/28/31 18/30/31
f 17/31/32 24/46/32 19/40/32
