# Blender 4.3.0
# www.blender.org
mtllib topaz.mtl
o topaz
v 0.000000 0.004313 -0.270057
v 0.172537 0.004313 -0.198129
v 0.231046 0.004313 0.008094
v 0.153121 0.004313 0.224610
v 0.000000 0.004313 0.381312
v -0.153121 0.004313 0.224610
v -0.231046 0.004313 0.008094
v -0.172537 0.004313 -0.198129
v 0.090816 0.004313 -0.252515
v 0.214638 0.004313 -0.117075
v 0.206280 0.004313 0.130523
v 0.083480 0.004313 0.318747
v -0.083480 0.004313 0.318747
v -0.206280 0.004313 0.130523
v -0.214638 0.004313 -0.117075
v -0.090816 0.004313 -0.252515
v 0.144599 0.072939 0.105883
v 0.000000 0.097257 0.189682
v 0.064447 0.097256 -0.072104
v -0.069014 0.072938 -0.174899
v 0.069014 0.072938 -0.174899
v 0.000000 0.097256 -0.105456
v -0.064447 0.097256 -0.072104
v -0.143183 0.072938 -0.072069
v 0.143183 0.072938 -0.072069
v 0.092523 0.097256 0.009898
v 0.061806 0.097257 0.124367
v 0.060064 0.072939 0.282551
v -0.061806 0.097257 0.124367
v -0.144599 0.072939 0.105883
v -0.060064 0.072939 0.282551
v -0.092523 0.097256 0.009898
v -0.162891 -0.052132 -0.070297
v -0.077918 -0.072234 -0.134487
v 0.000000 -0.048932 -0.193897
v 0.064097 -0.029742 -0.237441
v 0.135936 -0.029742 -0.184304
v 0.077918 -0.072234 -0.134487
v 0.000000 -0.097185 -0.064353
v -0.082791 -0.097185 0.004414
v -0.153668 -0.052131 0.074041
v -0.064097 -0.029742 -0.237441
v -0.135936 -0.029742 -0.184304
v -0.081522 -0.074918 0.156995
v 0.000000 -0.097184 0.079267
v 0.082791 -0.097185 0.004414
v 0.162891 -0.052132 -0.070297
v 0.153668 -0.052131 0.074041
v 0.081522 -0.074918 0.156995
v 0.000000 -0.066460 0.246247
vn 0.1158 0.9677 -0.2238
vn 0.1232 0.7604 -0.6377
vn 0.2505 0.7591 -0.6008
vn 0.3694 0.7452 -0.5551
vn 0.5608 0.7750 -0.2913
vn 0.6218 0.7631 -0.1764
vn -0.3694 0.7452 -0.5551
vn -0.2505 0.7591 -0.6008
vn -0.1232 0.7604 -0.6377
vn -0.5608 0.7750 -0.2913
vn -0.6218 0.7631 -0.1764
vn -0.6611 0.7452 -0.0867
vn -0.5365 0.8039 0.2567
vn -0.6843 0.6515 0.3275
vn -0.6283 0.6922 0.3550
vn -0.6763 0.6953 0.2434
vn -0.7098 0.6896 0.1436
vn 0.2936 0.9506 -0.1005
vn -0.1603 0.9753 0.1517
vn -0.1158 0.9677 -0.2238
vn -0.2973 0.9515 0.0798
vn 0.1603 0.9753 0.1517
vn 0.6611 0.7452 -0.0867
vn 0.7098 0.6896 0.1436
vn 0.6763 0.6953 0.2434
vn 0.6283 0.6922 0.3550
vn 0.6930 0.5069 0.5127
vn 0.6099 0.5224 0.5959
vn 0.6099 0.5224 0.5960
vn 0.5082 0.5310 0.6781
vn -0.4047 0.8666 -0.2919
vn -0.2887 0.9345 -0.2082
vn -0.2936 0.9506 -0.1005
vn 0.2973 0.9515 0.0798
vn -0.5082 0.5310 0.6781
vn -0.6099 0.5224 0.5959
vn -0.6099 0.5224 0.5960
vn -0.6930 0.5069 0.5127
vn -0.0000 0.8708 -0.4917
vn -0.0000 0.9438 -0.3305
vn 0.4047 0.8666 -0.2919
vn 0.2887 0.9345 -0.2082
vn 0.5365 0.8039 0.2567
vn 0.3090 0.9395 0.1478
vn -0.0000 0.8997 0.4364
vn -0.0000 0.8212 0.5706
vn -0.3090 0.9395 0.1478
vn -0.4667 0.8179 -0.3366
vn -0.0000 0.8111 -0.5849
vn 0.4667 0.8179 -0.3366
vn 0.6843 0.6515 0.3275
vn -0.0000 0.9674 0.2533
vn -0.0000 1.0000 -0.0000
vn -0.5571 0.8304 -0.0044
vn -0.4283 0.9037 -0.0034
vn -0.6183 0.7859 -0.0049
vn 0.5571 0.8304 -0.0044
vn 0.4283 0.9037 -0.0034
vn 0.6183 0.7859 -0.0049
vn -0.3285 -0.8366 0.4384
vn -0.0000 -0.8858 0.4641
vn -0.4310 -0.8124 0.3927
vn -0.5061 -0.7769 0.3744
vn -0.3586 -0.8400 0.4071
vn -0.0000 -0.9835 0.1810
vn -0.0956 -0.9790 0.1801
vn 0.6554 -0.7436 0.1326
vn 0.5640 -0.8250 0.0360
vn 0.5639 -0.8250 0.0360
vn 0.5130 -0.8577 0.0328
vn 0.5760 -0.7656 -0.2865
vn 0.5849 -0.7520 -0.3038
vn 0.4304 -0.6610 -0.6147
vn 0.4050 -0.6823 -0.6086
vn 0.1638 -0.5039 -0.8481
vn 0.1557 -0.9055 -0.3946
vn 0.0161 -0.9235 -0.3833
vn 0.2562 -0.9498 -0.1796
vn 0.2561 -0.9498 -0.1796
vn 0.1494 -0.9723 -0.1799
vn 0.6953 -0.7129 -0.0911
vn 0.2829 -0.9488 0.1408
vn 0.2830 -0.9487 0.1408
vn 0.1304 -0.9809 0.1442
vn -0.0000 -1.0000 -0.0000
vn -0.2829 -0.9488 0.1408
vn -0.2830 -0.9487 0.1408
vn -0.4349 -0.8905 0.1336
vn -0.5640 -0.8250 0.0360
vn -0.5639 -0.8250 0.0360
vn -0.6104 -0.7912 0.0390
vn -0.6554 -0.7436 0.1326
vn -0.6953 -0.7129 -0.0911
vn -0.5849 -0.7520 -0.3038
vn -0.4959 -0.8224 -0.2788
vn -0.5760 -0.7656 -0.2865
vn -0.4304 -0.6610 -0.6147
vn -0.4050 -0.6823 -0.6086
vn -0.1557 -0.9055 -0.3946
vn -0.0161 -0.9235 -0.3833
vn -0.2562 -0.9498 -0.1796
vn -0.2561 -0.9498 -0.1796
vn -0.3515 -0.9192 -0.1775
vn -0.0000 -0.9371 -0.3491
vn 0.0141 -0.9370 -0.3490
vn -0.0000 -0.8196 -0.5730
vn -0.1424 -0.8112 -0.5671
vn -0.1638 -0.5039 -0.8481
vn 0.3285 -0.8366 0.4384
vn 0.4310 -0.8124 0.3927
vn 0.3586 -0.8400 0.4071
vn 0.5061 -0.7769 0.3744
vn 0.5561 -0.7776 0.2935
vn 0.5744 -0.7658 0.2892
vn 0.0956 -0.9790 0.1801
vn 0.5299 -0.7935 0.2994
vn 0.6104 -0.7912 0.0390
vn 0.4088 -0.8724 -0.2680
vn 0.4593 -0.6352 -0.6209
vn 0.2945 -0.8688 -0.3981
vn 0.3515 -0.9192 -0.1775
vn 0.4349 -0.8905 0.1336
vn -0.1304 -0.9809 0.1442
vn -0.5130 -0.8577 0.0328
vn -0.4088 -0.8724 -0.2680
vn -0.4593 -0.6352 -0.6209
vn -0.2945 -0.8688 -0.3981
vn -0.1494 -0.9723 -0.1799
vn -0.0141 -0.9370 -0.3490
vn 0.1424 -0.8112 -0.5671
vn -0.5744 -0.7658 0.2892
vn -0.5561 -0.7776 0.2935
vn -0.5299 -0.7935 0.2994
vt 0.475896 0.270256
vt 0.478449 0.279548
vt 0.471508 0.279352
vt 0.487244 0.263346
vt 0.477939 0.260410
vt 0.467560 0.261247
vt 0.464652 0.275312
vt 0.459468 0.266273
vt 0.499726 0.278708
vt 0.487630 0.276628
vt 0.494774 0.269549
vt 0.499922 0.288230
vt 0.489517 0.288811
vt 0.495678 0.300781
vt 0.465862 0.314796
vt 0.481543 0.304262
vt 0.478210 0.317426
vt 0.487638 0.311072
vt 0.465402 0.284886
vt 0.465148 0.304061
vt 0.473372 0.301531
vt 0.482392 0.285267
vt 0.481079 0.293401
vt 0.455756 0.309316
vt 0.462778 0.295798
vt 0.451256 0.276675
vt 0.456039 0.290426
vt 0.447009 0.289027
vt 0.446820 0.300397
vt 0.449066 0.312950
vt 0.455206 0.322386
vt 0.466464 0.322386
vt 0.501736 0.311074
vt 0.514160 0.308261
vt 0.506460 0.320647
vt 0.499944 0.299185
vt 0.511884 0.296803
vt 0.522630 0.294635
vt 0.538487 0.311722
vt 0.536125 0.302764
vt 0.547603 0.302175
vt 0.544160 0.290929
vt 0.533042 0.292769
vt 0.548165 0.279814
vt 0.552807 0.289910
vt 0.553180 0.280344
vt 0.549015 0.270762
vt 0.544571 0.271626
vt 0.541630 0.264070
vt 0.539885 0.281232
vt 0.536775 0.271881
vt 0.529809 0.283087
vt 0.525442 0.305231
vt 0.519696 0.284472
vt 0.509369 0.286132
vt 0.516426 0.273689
vt 0.504817 0.275578
vt 0.500290 0.287978
vt 0.513513 0.265483
vt 0.521926 0.260916
vt 0.524621 0.265178
vt 0.532361 0.260410
vt 0.527013 0.273231
vt 0.533553 0.264777
vt 0.517136 0.320647
vt 0.528590 0.316992
s 1
usemtl Material.005
f 21/1/1 22/2/1 19/3/1
f 1/4/2 21/1/3 9/5/3
f 9/5/3 21/1/3 2/6/4
f 2/6/5 25/7/6 10/8/6
f 8/9/7 20/10/8 16/11/8
f 16/11/8 20/10/8 1/4/9
f 8/9/10 15/12/11 24/13/11
f 7/14/12 24/13/11 15/12/11
f 31/15/13 30/16/13 6/17/14
f 6/17/15 30/16/16 14/18/16
f 30/16/16 7/14/17 14/18/16
f 25/7/18 19/3/18 26/19/18
f 31/15/19 18/20/19 29/21/19
f 20/10/20 23/22/20 22/2/20
f 30/16/21 29/21/21 32/23/21
f 28/24/22 27/25/22 18/20/22
f 10/8/6 25/7/6 3/26/23
f 3/26/24 17/27/25 11/28/25
f 4/29/26 11/28/25 17/27/25
f 4/29/27 28/24/28 12/30/29
f 28/24/28 5/31/30 12/30/29
f 20/10/31 24/13/31 23/22/32
f 24/13/33 32/23/33 23/22/33
f 27/25/34 17/27/34 26/19/34
f 5/31/35 31/15/36 13/32/37
f 6/17/38 13/32/37 31/15/36
f 21/1/39 20/10/39 22/2/40
f 25/7/41 21/1/41 19/3/42
f 28/24/43 17/27/43 27/25/44
f 28/24/45 31/15/45 5/31/46
f 31/15/13 29/21/47 30/16/13
f 20/10/31 8/9/48 24/13/31
f 21/1/39 1/4/49 20/10/39
f 25/7/41 2/6/50 21/1/41
f 28/24/43 4/29/51 17/27/43
f 28/24/45 18/20/52 31/15/45
f 26/19/53 19/3/53 23/22/53
f 19/3/53 22/2/53 23/22/53
f 23/22/53 32/23/53 26/19/53
f 30/16/54 32/23/55 24/13/54
f 24/13/54 7/14/56 30/16/54
f 25/7/57 26/19/58 17/27/57
f 25/7/57 17/27/57 3/26/59
f 13/33/60 50/34/61 5/35/61
f 13/33/62 6/36/63 44/37/62
f 50/34/64 13/33/62 44/37/62
f 45/38/65 50/34/65 44/37/66
f 11/39/67 48/40/67 3/41/67
f 47/42/68 48/40/69 46/43/70
f 47/42/71 37/44/71 10/45/71
f 10/45/72 37/44/72 2/46/72
f 37/44/73 9/47/73 2/46/74
f 9/47/75 36/48/75 1/49/75
f 36/48/76 38/50/76 35/51/77
f 38/50/78 46/43/79 39/52/80
f 10/45/81 3/41/81 47/42/81
f 46/43/82 49/53/83 45/38/84
f 39/52/85 45/38/85 40/54/85
f 40/54/86 44/37/87 41/55/88
f 33/56/89 41/55/90 7/57/91
f 14/58/92 7/57/92 41/55/92
f 15/59/93 33/56/93 7/57/93
f 15/59/94 8/60/94 43/61/94
f 43/61/95 33/56/95 15/59/96
f 16/62/97 43/61/97 8/60/98
f 34/63/99 42/64/99 35/51/100
f 34/63/101 40/54/102 33/56/103
f 35/51/104 39/52/104 34/63/105
f 35/51/106 1/49/106 36/48/107
f 16/62/108 1/49/108 42/64/108
f 12/65/109 5/35/61 50/34/61
f 49/53/110 12/65/110 50/34/111
f 12/65/110 49/53/110 4/66/112
f 48/40/113 4/66/113 49/53/114
f 45/38/65 49/53/115 50/34/65
f 11/39/116 4/66/113 48/40/113
f 47/42/68 3/41/117 48/40/69
f 47/42/118 38/50/118 37/44/118
f 37/44/73 36/48/119 9/47/73
f 36/48/76 37/44/120 38/50/76
f 38/50/78 47/42/121 46/43/79
f 46/43/82 48/40/122 49/53/83
f 39/52/85 46/43/85 45/38/85
f 40/54/86 45/38/123 44/37/87
f 33/56/89 40/54/124 41/55/90
f 43/61/95 34/63/125 33/56/95
f 16/62/97 42/64/126 43/61/97
f 34/63/99 43/61/127 42/64/99
f 34/63/101 39/52/128 40/54/102
f 35/51/104 38/50/129 39/52/104
f 35/51/106 42/64/130 1/49/106
f 44/37/131 6/36/132 41/55/132
f 14/58/133 41/55/132 6/36/132
f 27/25/53 32/23/53 29/21/53
f 29/21/53 18/20/53 27/25/53
f 27/25/53 26/19/53 32/23/53
