# Blender 4.3.0
# www.blender.org
mtllib amethyst.mtl
o amethyst.001
v 0.000000 -0.000000 0.300637
v -0.132778 0.113953 0.076659
v 0.000000 0.113266 0.174880
v -0.142760 0.008132 0.209603
v -0.110136 0.008132 -0.228436
v 0.000000 0.113953 -0.153317
v 0.260360 0.000000 -0.150319
v 0.151449 0.113266 -0.087440
v 0.252901 0.008132 0.018833
v 0.142760 -0.008132 0.209603
v -0.260360 0.000000 -0.150319
v -0.252901 -0.008132 0.018833
v -0.151449 0.113266 -0.087440
v 0.132778 0.113953 0.076659
v 0.110136 -0.008132 -0.228436
v -0.132778 -0.113952 0.076659
v 0.000000 -0.113266 0.174878
v 0.151449 -0.113267 -0.087439
v 0.132778 -0.113952 0.076659
v -0.151449 -0.113267 -0.087439
v 0.000000 -0.113954 -0.153317
vn 0.0182 0.8882 0.4591
vn -0.4317 0.8720 0.2308
vn -0.6840 0.0418 0.7283
vn -0.4067 0.8882 -0.2138
vn 0.0159 0.8720 -0.4893
vn -0.2887 0.0418 -0.9565
vn 0.2887 -0.0418 -0.9565
vn -0.0000 -0.0000 1.0000
vn 0.6840 -0.0418 0.7283
vn 0.3885 0.8882 -0.2453
vn 0.4158 0.8720 0.2584
vn -0.9727 -0.0418 0.2283
vn 0.9727 0.0418 0.2283
vn 0.8660 -0.0000 -0.5000
vn -0.8660 -0.0000 -0.5000
vn -0.0182 -0.8882 0.4591
vn -0.4158 -0.8720 0.2584
vn -0.3885 -0.8882 -0.2453
vn 0.4067 -0.8882 -0.2137
vn 0.4317 -0.8720 0.2308
vn -0.0159 -0.8720 -0.4893
vt 0.270515 0.299381
vt 0.161470 0.380045
vt 0.153273 0.270864
vt 0.146137 0.514813
vt 0.270515 0.568915
vt 0.180065 0.630607
vt 0.360965 0.630607
vt 0.270515 0.196101
vt 0.387758 0.270863
vt 0.394894 0.514813
vt 0.379561 0.380045
vt 0.062819 0.427535
vt 0.478212 0.427535
vt 0.484338 0.566453
vt 0.056693 0.566453
vt 0.739525 0.542923
vt 0.625539 0.570649
vt 0.633509 0.464500
vt 0.618602 0.333477
vt 0.537598 0.418329
vt 0.531642 0.283270
vt 0.860449 0.333477
vt 0.941453 0.418329
vt 0.845541 0.464500
vt 0.853511 0.570649
vt 0.739525 0.643335
vt 0.947408 0.283270
vt 0.739525 0.280877
vt 0.827463 0.220898
vt 0.651587 0.220898
s 1
usemtl Material.004
f 3/1/1 2/2/2 4/3/3
f 13/4/4 6/5/5 5/6/6
f 6/5/5 15/7/7 5/6/6
f 3/1/1 1/8/8 10/9/9
f 3/1/1 4/3/3 1/8/8
f 8/10/10 15/7/7 6/5/5
f 3/1/1 10/9/9 14/11/11
f 13/4/4 12/12/12 2/2/2
f 2/2/2 12/12/12 4/3/3
f 8/10/10 9/13/13 7/14/14
f 13/4/4 5/6/6 11/15/15
f 13/4/4 11/15/15 12/12/12
f 8/10/10 14/11/11 9/13/13
f 8/10/10 7/14/14 15/7/7
f 17/16/16 4/17/3 16/18/17
f 20/19/18 12/20/12 11/21/15
f 18/22/19 9/23/13 19/24/20
f 17/16/16 10/25/9 1/26/8
f 17/16/16 1/26/8 4/17/3
f 20/19/18 16/18/17 12/20/12
f 17/16/16 19/24/20 10/25/9
f 18/22/19 7/27/14 9/23/13
f 18/22/19 21/28/21 15/29/7
f 20/19/18 11/21/15 5/30/6
f 18/22/19 15/29/7 7/27/14
f 20/19/18 5/30/6 21/28/21
f 14/11/11 10/9/9 9/13/13
f 16/18/17 4/17/3 12/20/12
f 21/28/21 5/30/6 15/29/7
f 19/24/20 9/23/13 10/25/9
f 21/28/21 18/22/19 19/24/20
f 16/18/17 20/19/18 21/28/21
f 17/16/16 16/18/17 19/24/20
f 6/5/5 2/2/2 14/11/11
f 2/2/2 3/1/1 14/11/11
f 13/4/4 2/2/2 6/5/5
f 14/11/11 8/10/10 6/5/5
f 21/28/21 19/24/20 16/18/17
