# Blender 4.3.0
# www.blender.org
mtllib diamond.mtl
o Cylinder
v 0.000000 0.068626 -0.576455
v 0.370538 0.068626 -0.441590
v 0.567698 0.068626 -0.100100
v 0.499225 0.068626 0.288228
v 0.197159 0.068626 0.541691
v -0.197159 0.068626 0.541691
v -0.499225 0.068626 0.288228
v -0.567698 0.068626 -0.100100
v -0.370538 0.068626 -0.441590
v 0.161024 0.319109 -0.191901
v 0.000000 0.319109 -0.252975
v 0.246703 0.319109 -0.043500
v 0.216947 0.319109 0.125254
v 0.085679 0.319109 0.235401
v -0.085679 0.319109 0.235401
v -0.216947 0.319109 0.125254
v -0.246703 0.319109 -0.043500
v -0.161024 0.319109 -0.191901
v 0.471995 0.205877 0.083225
v 0.124888 0.274503 0.343128
v 0.234713 0.274503 -0.279721
v -0.163922 0.205877 -0.450373
v 0.163922 0.205877 -0.450373
v 0.000000 0.274503 -0.365149
v -0.234713 0.274503 -0.279721
v -0.415066 0.205877 -0.239638
v 0.415066 0.205877 -0.239638
v 0.359602 0.274503 -0.063408
v 0.316229 0.274503 0.182575
v 0.308073 0.205877 0.367147
v 0.000000 0.205877 0.479277
v -0.124888 0.274503 0.343128
v -0.316229 0.274503 0.182575
v -0.471995 0.205877 0.083226
v -0.308073 0.205877 0.367147
v -0.359602 0.274503 -0.063407
v 0.274993 0.308815 0.048489
v 0.094563 0.308815 -0.263408
v 0.241824 0.308815 -0.139618
v -0.241825 0.308815 -0.139618
v -0.093997 0.308815 -0.264016
v -0.179489 0.308815 0.213906
v -0.274993 0.308815 0.048489
v 0.000000 0.308815 0.279235
v 0.179489 0.308815 0.213906
v 0.000000 -0.274503 0.000000
vn 0.1980 0.9735 -0.1143
vn -0.3571 0.9319 -0.0630
vn -0.3470 0.9305 -0.1173
vn 0.0010 0.9292 -0.3695
vn 0.0011 0.9292 -0.3695
vn 0.0603 0.9275 -0.3688
vn 0.0820 0.9729 -0.2163
vn 0.6044 0.7162 0.3489
vn 0.5717 0.7148 0.4026
vn -0.2336 0.9319 -0.2774
vn -0.2334 0.9319 -0.2775
vn -0.1922 0.9306 -0.3114
vn -0.3113 0.4140 -0.8554
vn -0.7883 0.4140 -0.4552
vn -0.1830 -0.8448 -0.5028
vn 0.6872 0.7162 -0.1212
vn 0.6968 0.7148 -0.0591
vn -0.0000 0.4140 0.9103
vn -0.1571 0.8882 -0.4317
vn -0.1570 0.8882 -0.4317
vn -0.1451 0.8881 -0.4361
vn -0.2251 0.9735 0.0397
vn -0.1980 0.9735 -0.1143
vn -0.0814 0.9733 -0.2146
vn -0.0000 0.8892 0.4576
vn 0.0102 0.8891 0.4575
vn 0.2334 0.9319 -0.2775
vn 0.2750 0.9305 -0.2418
vn 0.3571 0.9319 -0.0630
vn 0.3661 0.9305 -0.0085
vn 0.1240 0.9319 0.3407
vn 0.0719 0.9305 0.3591
vn 0.4506 0.8892 0.0795
vn 0.4524 0.8891 0.0694
vn -0.2941 0.8892 0.3505
vn -0.3019 0.8891 0.3439
vn -0.6872 0.7162 -0.1212
vn -0.6968 0.7148 -0.0591
vn -0.3440 -0.8448 0.4099
vn -0.4634 -0.8448 -0.2676
vn -0.0000 0.7162 -0.6978
vn -0.0628 0.7148 -0.6965
vn -0.0000 0.9735 0.2286
vn 0.1470 0.9735 0.1751
vn 0.2251 0.9735 0.0397
vn -0.1470 0.9735 0.1751
vn 0.3140 0.9319 0.1813
vn 0.2859 0.9305 0.2289
vn -0.1240 0.9319 0.3407
vn -0.1757 0.9305 0.3213
vn -0.3140 0.9319 0.1813
vn -0.3412 0.9305 0.1332
vn 0.3963 0.8892 -0.2288
vn 0.4013 0.8891 -0.2199
vn 0.2941 0.8892 0.3505
vn 0.2863 0.8891 0.3571
vn 0.1569 0.8886 -0.4310
vn 0.1568 0.8886 -0.4311
vn 0.1678 0.8886 -0.4270
vn -0.3963 0.8892 -0.2288
vn -0.3911 0.8891 -0.2376
vn 0.3113 0.4140 -0.8554
vn -0.4506 0.8892 0.0795
vn -0.4524 0.8891 0.0694
vn 0.4486 0.7162 -0.5346
vn 0.3996 0.7148 -0.5739
vn 0.2387 0.7162 0.6558
vn 0.2972 0.7148 0.6330
vn -0.4486 0.7162 -0.5346
vn -0.3996 0.7148 -0.5739
vn -0.6044 0.7162 0.3489
vn -0.5717 0.7148 0.4026
vn -0.2387 0.7162 0.6558
vn -0.1792 0.7148 0.6760
vn -0.0000 -0.8448 0.5351
vn 0.8965 0.4140 0.1581
vn 0.1830 -0.8448 -0.5028
vn 0.7883 0.4140 -0.4552
vn 0.4634 -0.8448 -0.2676
vn -0.5851 0.4140 0.6973
vn 0.3440 -0.8448 0.4099
vn 0.5270 -0.8448 0.0929
vn 0.5851 0.4140 0.6973
vn -0.0000 1.0000 -0.0000
vn -0.8965 0.4140 0.1581
vn -0.5270 -0.8448 0.0929
vn -0.3661 0.9305 -0.0085
vn -0.0583 0.9276 -0.3689
vn 0.6346 0.7148 0.2938
vn -0.2750 0.9305 -0.2419
vn 0.6750 0.7148 -0.1828
vn -0.1689 0.8882 -0.4273
vn -0.0102 0.8891 0.4575
vn 0.1915 0.9306 -0.3120
vn 0.3470 0.9305 -0.1173
vn 0.1757 0.9305 0.3213
vn 0.4488 0.8891 0.0895
vn -0.2863 0.8891 0.3571
vn -0.6750 0.7148 -0.1828
vn 0.0628 0.7148 -0.6965
vn 0.3412 0.9305 0.1332
vn -0.0719 0.9305 0.3591
vn -0.2859 0.9305 0.2289
vn 0.3911 0.8891 -0.2376
vn 0.3019 0.8891 0.3439
vn 0.1458 0.8885 -0.4351
vn -0.4013 0.8891 -0.2199
vn -0.4488 0.8891 0.0895
vn 0.4958 0.7148 -0.4931
vn 0.1792 0.7148 0.6760
vn -0.4958 0.7148 -0.4931
vn -0.6346 0.7148 0.2938
vn -0.2972 0.7148 0.6330
vt 0.164112 0.262950
vt 0.192601 0.322671
vt 0.162559 0.300345
vt 0.320262 0.122267
vt 0.300502 0.165639
vt 0.268889 0.145599
vt 0.141369 0.171882
vt 0.179904 0.198360
vt 0.155335 0.226016
vt 0.249081 0.397620
vt 0.239905 0.514361
vt 0.179093 0.432117
vt 0.221791 0.114523
vt 0.234538 0.160459
vt 0.196597 0.165563
vt 0.146496 0.094022
vt 0.044861 0.105568
vt 0.190487 0.001682
vt 0.368812 0.015704
vt 0.275760 0.058171
vt 0.513770 0.254612
vt 0.564337 0.092093
vt 0.762313 0.242819
vt 0.159197 0.356668
vt 0.077129 0.440199
vt 0.083408 0.338108
vt 0.412269 0.466541
vt 0.422016 0.364722
vt 0.513570 0.319115
vt 0.347702 0.212014
vt 0.336368 0.176342
vt 0.349739 0.315058
vt 0.344259 0.371214
vt 0.116662 0.267522
vt 0.215452 0.352315
vt 0.316577 0.332415
vt 0.455588 0.234852
vt 0.368298 0.243267
vt 0.390719 0.191490
vt 0.896797 0.452167
vt 0.730768 0.489634
vt 0.579498 0.411613
vt 0.070527 0.204585
vt 0.354052 0.277879
vt 0.252815 0.350106
vt 0.289375 0.358125
vt 0.400196 0.289807
vt 0.312819 0.442628
vt 0.000100 0.278760
vt 0.397827 0.113787
vt 0.496407 0.141066
vt 0.999900 0.316744
vt 0.707539 0.000100
vt 0.876371 0.021678
vt 0.991833 0.146730
s 1
usemtl Material.004
f 10/1/1 12/2/1 39/3/1
f 36/4/2 17/5/2 40/6/3
f 24/7/4 11/8/5 38/9/6
f 11/8/7 10/1/7 38/9/7
f 29/10/8 4/11/8 19/12/9
f 25/13/10 18/14/11 41/15/12
f 22/16/13 1/17/13 9/18/13
f 8/19/14 26/20/14 9/18/14
f 9/21/15 1/22/15 46/23/15
f 28/24/16 3/25/16 27/26/17
f 5/27/18 31/28/18 6/29/18
f 22/16/19 41/15/20 24/7/21
f 16/30/22 17/5/22 43/31/22
f 17/5/23 18/14/23 40/6/23
f 18/14/24 11/8/24 41/15/24
f 44/32/25 31/28/25 20/33/26
f 21/34/27 10/1/27 39/3/28
f 28/24/29 12/2/29 37/35/30
f 20/33/31 14/36/31 44/32/32
f 37/35/33 19/12/33 28/24/34
f 35/37/35 42/38/35 33/39/36
f 8/19/37 36/4/37 26/20/38
f 6/40/39 7/41/39 46/23/39
f 8/42/40 9/21/40 46/23/40
f 1/17/41 24/7/41 23/43/42
f 14/36/43 15/44/43 44/32/43
f 13/45/44 14/36/44 45/46/44
f 12/2/45 13/45/45 37/35/45
f 15/44/46 16/30/46 42/38/46
f 29/10/47 13/45/47 45/46/48
f 32/47/49 15/44/49 42/38/50
f 33/39/51 16/30/51 43/31/52
f 27/26/53 39/3/53 28/24/54
f 30/48/55 45/46/55 20/33/56
f 23/43/57 38/9/58 21/34/59
f 26/20/60 40/6/60 25/13/61
f 23/43/62 2/49/62 1/17/62
f 34/50/63 43/31/63 36/4/64
f 2/49/65 21/34/65 27/26/66
f 5/27/67 20/33/67 31/28/68
f 25/13/69 9/18/69 26/20/70
f 7/51/71 33/39/71 34/50/72
f 6/29/73 32/47/73 35/37/74
f 5/52/75 6/40/75 46/23/75
f 4/11/76 3/25/76 19/12/76
f 1/22/77 2/53/77 46/23/77
f 27/26/78 3/25/78 2/49/78
f 2/53/79 3/54/79 46/23/79
f 7/51/80 6/29/80 35/37/80
f 4/55/81 5/52/81 46/23/81
f 3/54/82 4/55/82 46/23/82
f 30/48/83 5/27/83 4/11/83
f 16/30/84 14/36/84 12/2/84
f 34/50/85 8/19/85 7/51/85
f 7/41/86 8/42/86 46/23/86
f 36/4/2 43/31/87 17/5/2
f 24/7/4 41/15/88 11/8/5
f 29/10/8 30/48/89 4/11/8
f 25/13/10 40/6/90 18/14/11
f 28/24/16 19/12/91 3/25/16
f 22/16/19 25/13/92 41/15/20
f 44/32/25 32/47/93 31/28/25
f 21/34/27 38/9/94 10/1/27
f 28/24/29 39/3/95 12/2/29
f 20/33/31 45/46/96 14/36/31
f 37/35/33 29/10/97 19/12/33
f 35/37/35 32/47/98 42/38/35
f 8/19/37 34/50/99 36/4/37
f 1/17/41 22/16/100 24/7/41
f 29/10/47 37/35/101 13/45/47
f 32/47/49 44/32/102 15/44/49
f 33/39/51 42/38/103 16/30/51
f 27/26/53 21/34/104 39/3/53
f 30/48/55 29/10/105 45/46/55
f 23/43/57 24/7/106 38/9/58
f 26/20/60 36/4/107 40/6/60
f 34/50/63 33/39/108 43/31/63
f 2/49/65 23/43/109 21/34/65
f 5/27/67 30/48/110 20/33/67
f 25/13/69 22/16/111 9/18/69
f 7/51/71 35/37/112 33/39/71
f 6/29/73 31/28/113 32/47/73
f 10/1/84 11/8/84 18/14/84
f 18/14/84 17/5/84 16/30/84
f 16/30/84 15/44/84 14/36/84
f 14/36/84 13/45/84 12/2/84
f 12/2/84 10/1/84 18/14/84
f 18/14/84 16/30/84 12/2/84
